<?xml version="1.0" standalone="no"?>
<!DOCTYPE svg PUBLIC "-//W3C//DTD SVG 20010904//EN"
 "http://www.w3.org/TR/2001/REC-SVG-20010904/DTD/svg10.dtd">
<svg version="1.0" xmlns="http://www.w3.org/2000/svg"
 width="409.000000pt" height="358.000000pt" viewBox="0 0 409.000000 358.000000"
 preserveAspectRatio="xMidYMid meet">

<g transform="translate(0.000000,358.000000) scale(0.100000,-0.100000)"
fill="#000000" stroke="none">
<path d="M2063 3270 c-135 -68 -261 -235 -329 -440 -26 -78 -28 -98 -29 -235
0 -138 2 -154 24 -198 13 -26 37 -58 53 -72 106 -90 333 74 453 326 54 114 77
216 78 344 2 140 -18 213 -73 267 -48 49 -91 51 -177 8z"/>
<path d="M1056 2970 c-55 -49 -71 -104 -71 -250 0 -149 17 -223 81 -355 101
-210 262 -355 393 -355 42 0 54 5 79 30 50 49 67 117 66 255 -1 139 -16 208
-75 333 -74 161 -187 288 -301 342 -83 39 -127 39 -172 0z"/>
<path d="M2814 2810 c-86 -16 -206 -58 -279 -99 -194 -108 -336 -292 -309
-400 34 -132 327 -163 582 -60 261 104 468 356 392 477 -34 55 -111 84 -233
88 -56 1 -125 -1 -153 -6z"/>
<path d="M651 2084 c-106 -28 -151 -71 -151 -143 0 -60 31 -120 99 -193 143
-155 349 -251 566 -265 202 -12 335 50 335 158 0 126 -201 321 -415 402 -147
56 -319 72 -434 41z"/>
<path d="M2661 2084 c-75 -20 -130 -62 -146 -112 -11 -38 22 -127 73 -194 90
-116 255 -220 428 -270 63 -18 104 -22 204 -22 143 0 213 20 266 75 113 118
-110 388 -406 491 -139 48 -310 61 -419 32z"/>
<path d="M2514 1566 c-110 -48 -143 -276 -72 -504 73 -239 270 -461 424 -478
64 -7 103 17 133 81 81 171 26 470 -123 678 -115 162 -276 261 -362 223z"/>
<path d="M1312 1365 c-266 -70 -511 -288 -512 -454 0 -38 5 -49 38 -80 47 -45
94 -61 203 -68 211 -14 451 80 615 242 163 161 180 286 47 352 -53 25 -69 28
-178 31 -101 2 -135 -2 -213 -23z"/>
<path d="M2061 1254 c-71 -36 -178 -143 -230 -232 -98 -163 -136 -305 -129
-475 4 -96 8 -120 32 -170 48 -100 114 -119 221 -66 98 49 228 203 290 344 46
102 68 211 69 330 1 130 -20 208 -69 261 -28 30 -39 34 -82 34 -33 0 -66 -9
-102 -26z"/>
</g>
</svg>
